<?xml version="1.0" encoding="UTF-8"?>
<svg xmlns="http://www.w3.org/2000/svg" id="Layer_1" version="1.2" viewBox="0 0 1000 1000" baseProfile="tiny-ps">
  <path d="M166.4,715.1l-3.6-11.7h-45.7l-8.3,11.7h-24.1l50.6-69.2h32.7l22.3,69.2h-23.9ZM158.5,688.2l-8.1-26.2h-4.2l-18.6,26.2h30.9ZM212.6,645.9h23.2l14.8,51.9h3.9l35.4-51.9h23l-47.6,69.2h-32.4l-20.3-69.2h0ZM339.2,645.9h22.1l-13.9,69.2h-22.1l13.9-69.2h0ZM455,715.1l-3.6-11.7h-45.7l-8.3,11.7h-24.1l50.6-69.2h32.7l22.3,69.2h-23.9ZM447.1,688.2l-8.1-26.2h-4.2l-18.6,26.2h30.9ZM504.6,645.9h83.7l-3.5,17.6h-30.8l-10.4,51.6h-22.1l10.4-51.6h-30.8l3.5-17.6h0ZM615.9,645.9h22.1l-13.9,69.2h-22.1l13.9-69.2h0ZM716.8,645c14.9,0,25.1.4,30.6,1.1,7.9,1.1,12,4.9,12.5,11.5.3,4.5-.6,12.2-2.7,22.9-2.2,10.8-4.3,18.5-6.5,23-3.2,6.6-8.9,10.4-17.2,11.5-5.8.7-16,1.1-30.8,1.1s-25.3-.4-30.8-1.1c-7.9-1.1-12-4.9-12.5-11.5-.3-4.5.6-12.3,2.8-23.4,2.1-10.5,4.2-18.1,6.4-22.5,3.2-6.6,8.9-10.4,17.2-11.5,5.7-.7,16.1-1.1,31-1.1h0ZM713.2,662.9c-11.2,0-18,.3-20.4.9-2.7.7-4.7,2.2-6,4.5-1.3,2.4-2.6,7-4,14-.9,4.2-1.2,7.3-1.2,9.2.1,3.5,2.3,5.5,6.4,6.1,3.1.4,9.1.6,18.2.6s14.2-.2,17-.4c2.9-.3,5.1-1,6.6-2,1.4-1,2.5-2.3,3.3-4.2.8-1.9,1.6-4.9,2.5-9.1,1-5,1.6-8.6,1.7-11,.1-2.3-.1-4.1-.8-5.3-.8-1.5-2.5-2.4-5-2.8-2.5-.4-8.6-.5-18.4-.5h0ZM795.2,645.9h36.9l25.9,51.7h2.2l9.9-51.7h21.4l-13.9,69.2h-36.6l-26-51.7h-2.3l-9.9,51.7h-21.4l13.9-69.2Z" fill="#bd1b21" fill-rule="evenodd"/>
  <path d="M144.3,534.5c-192.9-79.4-98.9-179.2,286.4-204.1-299.8,57-410.3,116.4-286.4,204.1Z" fill="#bd1b21" fill-rule="evenodd"/>
  <path d="M199.6,396.1l-23.4,116.8c-2.1,10.7-4.1,18.1-5.8,22.2-1.7,4-4.2,7.3-7.4,9.7-7.6,5.5-24.6,8.3-51.2,8.3l-12.8,63.5h5.4c34.2,0,59.3-1.7,75.4-5.1,16-3.4,29.1-9.7,38.9-18.9,7.7-7.2,13.7-16.2,18.1-27.1,4.4-10.9,8.9-27.9,13.5-51l28.6-142.6c-26.7,7-53.5,14.8-79.4,24.2Z" fill="#616161" fill-rule="evenodd"/>
  <polygon points="319.3 367.9 270.1 612.9 451.8 612.9 440.9 550.4 360.9 550.4 397.5 367.9 319.3 367.9" fill="#616161" fill-rule="evenodd"/>
  <polygon points="437 367.9 480 612.9 595.5 612.9 680.1 433.4 693.2 612.9 808.4 612.9 952.8 367.9 873.7 367.9 770.8 551.5 756.8 551.5 737.9 367.9 647.9 367.9 555.6 551.5 541.8 551.5 513 367.9 437 367.9" fill="#616161" fill-rule="evenodd"/>
  <path d="M442.6,318.8c-4.2-5.8-8.6-19.2-20.4-17.2l8.1,24.8-1.6,4.4,59.9-6.2,10.9,11.8c19.1-8.8,21.9-12.1,33.7-14.4,9.5-1.9,18.9-2.3,28.5-4,8.3-1.5,17-3.9,23.9-8.2,7.8-4.9,6.2-5.3-.2-7.4-3.1-1-6.5-1.6-10.1-2-7.3-.8-13.5-.7-21.2.2-8.2,1-15.5,2.6-22.9,4.3-7.7,1.7-7.7,2.3-14.4,0-8.8-3-16.2-6.9-23.3-10.8-5.5-3-11.6-6.7-17.6-8.9-5.4-2.1-7.9-1.3-12.3.1l12.8,27.4-33.8,6.1Z" fill="#bd1b21" fill-rule="evenodd"/>
<title>Title</title></svg>
